PathFileType	4	(X/Y/Z)	pose_F01_0-81.trc
DataRate	CameraRate	NumFrames	NumMarkers	Units	OrigDataRate	OrigDataStartFrame	OrigNumFrames
30	30	6	21	m	30	0	81
Frame#	Time	CHip			RHip			RKnee			RAnkle			RBigToe			RSmallToe			RHeel			LHip			LKnee			LAnkle			LBigToe			LSmallToe			LHeel			Neck			Nose			RShoulder			RElbow			RWrist			LShoulder			LElbow			LWrist			
		X1	Y1	Z1	X2	Y2	Z2	X3	Y3	Z3	X4	Y4	Z4	X5	Y5	Z5	X6	Y6	Z6	X7	Y7	Z7	X8	Y8	Z8	X9	Y9	Z9	X10	Y10	Z10	X11	Y11	Z11	X12	Y12	Z12	X13	Y13	Z13	X14	Y14	Z14	X15	Y15	Z15	X16	Y16	Z16	X17	Y17	Z17	X18	Y18	Z18	X19	Y19	Z19	X20	Y20	Z20	X21	Y21	Z21	
0	0.0	-0.21934264395812614	1.8315057258352523	-0.42105795105725535	-0.22875748274765603	1.8257824785818626	-0.36436727811236164	-0.24154149994634191	1.7141609364764494	-0.44201034600304656													-0.20781218879157592	1.8310811534053701	-0.4881388590211993	-0.16126129046450483	1.7163534293188514	-0.330867932343073	-0.20629024346529679	1.6098808600414762	-0.4424622757945149	-0.2234164082709994	1.5979579941544149	-0.5277811542359498	-0.2002306308270127	1.6033735527979143	-0.48205435648928524	-0.21058765769328455	1.6047297197669084	-0.41837341735922995	-0.20690487861786724	1.974479141632476	-0.45165871969777854	-0.21790246609653685	2.0315194832160404	-0.483828333926765	-0.22224681035466395	1.9712320742746279	-0.3581406914667892	-0.23572030629634233	1.8915293614428426	-0.3188353361991161	-0.24402582839106698	1.8172055280812234	-0.31656469344433613	-1.715764114614462	1.8886093650268752	1.1448194417790811	-0.17944276934440653	1.9014178687977736	-0.5622549498963456	-0.18761916942464035	1.8329155036832292	-0.5583254393812949
1	0.03333333333333333	-0.21760238276307234	1.833116843469797	-0.432374258061563	-0.22777103030407783	1.8286112982239273	-0.37041797131667026	-0.24154149994634191	1.7141609364764494	-0.44201034600304656													-0.20670325811549137	1.8332071601541915	-0.4939720271997794	-0.16532959971193387	1.7171217673747112	-0.3442443304411179	-0.20629024346529679	1.6098808600414762	-0.4424622757945149	-0.2234164082709994	1.5979579941544149	-0.5277811542359498	-0.2002306308270127	1.6033735527979143	-0.48205435648928524	-0.21058765769328455	1.6047297197669084	-0.41837341735922995	-0.20688630820887088	1.9747051560190292	-0.4518252834107192	-0.21871713498872175	2.029453546951272	-0.48611217240352295	-0.22324427821058312	1.971591099479669	-0.3615008059231408	-0.23510831162290335	1.8922015685229157	-0.3246946291941124	-0.2425869797938316	1.8221398909170008	-0.3193049453519399	-1.7145927733271056	1.8886677911496808	1.1434434201306667	-0.18245007473371158	1.9022331732420088	-0.5635467922110073	-0.1877646789926657	1.833927471258981	-0.5587199121613187
2	0.06666666666666667	-0.21586212156801854	1.8347279611043419	-0.4436905650658706	-0.22678457786049963	1.831440117865992	-0.3764686645209789	-0.24154149994634191	1.7141609364764494	-0.44201034600304656													-0.2055943274394068	1.8353331669030128	-0.4998051953783595	-0.1693979089593629	1.717890105430571	-0.3576207285391628	-0.20629024346529679	1.6098808600414762	-0.4424622757945149	-0.2234164082709994	1.5979579941544149	-0.5277811542359498	-0.2002306308270127	1.6033735527979143	-0.48205435648928524	-0.21058765769328455	1.6047297197669084	-0.41837341735922995	-0.20686773779987452	1.9749311704055823	-0.45199184712365986	-0.21953180388090665	2.0273876106865036	-0.4883960108802809	-0.2242417460665023	1.9719501246847102	-0.36486092037949247	-0.23449631694946438	1.8928737756029888	-0.33055392218910873	-0.2411481311965962	1.8270742537527782	-0.3220451972595436	-1.7134214320397492	1.8887262172724864	1.1420673984822522	-0.18545738012301663	1.903048477686244	-0.5648386345256691	-0.18791018856069103	1.8349394388347329	-0.5591143849413425
3	0.1	-0.2169944880250852	1.8326115213561096	-0.44688708094008794	-0.22906272046985893	1.830564263952236	-0.38304876090723683	-0.24154149994634191	1.7141609364764494	-0.44201034600304656													-0.20574260060959956	1.8334877210907232	-0.49974036493446994	-0.17346621820679195	1.718658443486431	-0.37099712663720774	-0.20629024346529679	1.6098808600414762	-0.4424622757945149	-0.2234164082709994	1.5979579941544149	-0.5277811542359498	-0.2002306308270127	1.6033735527979143	-0.48205435648928524	-0.21058765769328455	1.6047297197669084	-0.41837341735922995	-0.20785418965590022	1.973959483781684	-0.45511710619214757	-0.22145617417875224	2.0291368128753677	-0.5037261518316204	-0.22246725324354535	1.9720098274448894	-0.36697625412042806	-0.235470243520974	1.891014952451991	-0.3335253817373319	-0.24144625182456572	1.8262471886865332	-0.3308466229959413	-1.7129653735155068	1.8887389105790375	1.1413161365258022	-0.18330809110504248	1.9013188371583283	-0.5670070271995933	-0.1858292227533012	1.8318472726423318	-0.5609530174582771
4	0.13333333333333333	-0.21595113603910715	1.832357114238481	-0.45235630461450405	-0.2272944691100284	1.8303603824376335	-0.3941995043136063	-0.24154149994634191	1.7141609364764494	-0.44201034600304656													-0.2038783490516291	1.83207896319831	-0.5018688419627485	-0.177534527454221	1.7194267815422908	-0.38437352473525266	-0.20629024346529679	1.6098808600414762	-0.4424622757945149	-0.2234164082709994	1.5979579941544149	-0.5277811542359498	-0.2002306308270127	1.6033735527979143	-0.48205435648928524	-0.21058765769328455	1.6047297197669084	-0.41837341735922995	-0.20772170003960597	1.9758228433276177	-0.4639199620415755	-0.22048631546295466	2.0255274510322674	-0.5080926366218655	-0.22543807009814645	1.9726481389916781	-0.3768633893880563	-0.2337198725095452	1.8901898257335055	-0.33588945852902	-0.24273139459760193	1.8230176337699822	-0.34251646875055	-1.6877511279835788	1.8889543525632408	1.100380895854518	-0.18132014461360232	1.9032653717535526	-0.5696671917282012	-0.1838324427971955	1.8356875673728994	-0.5636616379067458
5	0.16666666666666666	-0.21397777192784312	1.8318043147588454	-0.45482514829410575	-0.22551629374052987	1.8299506861483141	-0.40515484984650757	-0.24154149994634191	1.7141609364764494	-0.44201034600304656													-0.20070540084108673	1.831803850470257	-0.5095383750207735	-0.18160283670165003	1.7201951195981506	-0.3977499228332976	-0.20629024346529679	1.6098808600414762	-0.4424622757945149	-0.2234164082709994	1.5979579941544149	-0.5277811542359498	-0.2002306308270127	1.6033735527979143	-0.48205435648928524	-0.21058765769328455	1.6047297197669084	-0.41837341735922995	-0.20582069799112632	1.9760162892652418	-0.4747357341719865	-0.21853277194526108	2.0239361521447017	-0.5099823902417178	-0.22565081779690713	1.9727455452247291	-0.3856364749535308	-0.23185120106723595	1.8902830846972458	-0.3382168984647786	-0.24405552836895505	1.8226784256991893	-0.34623177518792014	-1.6744265167514112	1.888873847866378	1.0791955576523455	-0.17926376344226774	1.9039234841247916	-0.5719641863943654	-0.1827448055251608	1.8355866053382834	-0.5690462803034517
